<?xml version="1.0" standalone="no"?>
<!DOCTYPE svg PUBLIC "-//W3C//DTD SVG 20010904//EN"
 "http://www.w3.org/TR/2001/REC-SVG-20010904/DTD/svg10.dtd">
<svg version="1.0" xmlns="http://www.w3.org/2000/svg"
 width="874.000000pt" height="230.000000pt" viewBox="0 0 874.000000 230.000000"
 preserveAspectRatio="xMidYMid meet">

<g transform="translate(0.000000,230.000000) scale(0.100000,-0.100000)"
fill="#000000" stroke="none">
<path d="M202 2179 c-46 -14 -115 -85 -130 -135 -16 -54 -17 -1739 -1 -1797
12 -43 59 -101 100 -123 42 -21 8316 -21 8358 0 41 22 88 80 100 123 16 58 15
1743 -1 1797 -16 53 -84 121 -134 135 -51 14 -8243 14 -8292 0z m660 -456 c3
-44 5 -48 33 -53 l30 -5 0 -245 0 -245 -32 -3 c-32 -3 -33 -5 -33 -48 0 -48 6
-52 50 -29 15 8 53 18 84 21 56 7 56 7 56 40 0 19 2 34 4 34 2 0 11 3 20 6 13
5 16 -2 16 -39 0 -40 3 -46 28 -55 15 -5 35 -13 45 -17 16 -7 17 6 17 194 l0
201 -45 0 -45 0 0 -45 c0 -46 -4 -51 -28 -36 -9 5 -12 25 -10 62 3 51 5 54 31
57 27 3 27 4 27 78 0 67 2 74 20 74 18 0 20 -7 20 -74 l0 -75 33 -3 32 -3 3
-234 2 -234 32 -35 c103 -118 96 -301 -15 -410 -63 -61 -126 -87 -217 -86 -88
0 -149 25 -211 87 -61 62 -84 118 -84 212 0 89 19 141 75 204 26 29 30 41 30
92 l0 58 -32 3 -33 3 -2 188 c-1 138 1 187 10 187 8 0 8 3 -1 9 -9 5 -12 25
-10 57 3 46 5 49 33 54 28 5 30 9 33 53 2 32 8 47 17 47 9 0 15 -15 17 -47z
m598 -78 l0 -125 30 0 c39 0 41 -12 38 -180 l-3 -135 -30 -5 -30 -5 -3 -83
c-3 -74 -5 -82 -22 -82 -18 0 -20 7 -20 85 l0 85 -30 0 -31 0 3 158 3 157 28
3 27 3 0 125 c0 117 1 124 20 124 19 0 20 -7 20 -125z m-880 -65 l0 -60 30 0
30 0 0 -305 0 -305 -30 0 -30 0 0 -66 c0 -57 -2 -65 -17 -62 -15 3 -19 16 -21
66 -3 61 -3 62 -33 62 l-29 0 2 303 3 302 28 3 c26 3 27 6 27 56 0 55 4 66 27
66 9 0 13 -17 13 -60z m6350 -165 c0 -118 3 -215 8 -215 4 0 57 50 117 110
l110 110 60 0 60 -1 -104 -98 c-95 -90 -103 -99 -92 -120 7 -12 55 -87 107
-167 52 -79 94 -147 94 -149 0 -3 -26 -5 -57 -5 l-58 1 -50 82 c-27 45 -64
106 -83 136 l-34 53 -39 -38 -39 -38 0 -98 0 -98 -45 0 -45 0 0 368 c0 203 3
372 7 375 3 4 24 7 45 7 l38 0 0 -215z m-2870 80 l0 -75 45 0 c45 0 45 0 45
-35 0 -35 0 -35 -45 -35 l-45 0 0 -188 c0 -133 4 -192 12 -200 7 -7 27 -12 45
-12 31 0 33 -2 33 -35 0 -29 -4 -36 -26 -41 -40 -10 -105 3 -128 25 -20 20
-21 35 -26 234 l-5 212 -37 3 c-36 3 -38 5 -38 38 0 33 1 34 40 34 l40 0 0 75
0 75 45 0 45 0 0 -75z m1160 0 l0 -75 45 0 c45 0 45 0 45 -35 0 -35 0 -35 -45
-35 l-45 0 0 -188 c0 -133 4 -192 12 -200 7 -7 27 -12 45 -12 31 0 33 -2 33
-34 0 -39 -11 -46 -75 -46 -32 0 -52 7 -72 24 l-28 24 -5 214 -5 213 -37 3
c-36 3 -38 5 -38 38 0 33 1 34 40 34 l40 0 0 75 0 75 45 0 45 0 0 -75z m-2910
-85 c42 -21 83 -81 95 -137 l7 -33 -45 0 c-43 0 -46 2 -57 35 -17 51 -53 75
-112 75 -103 0 -153 -68 -153 -205 1 -133 50 -200 145 -200 40 0 54 5 79 29
17 16 35 44 42 63 10 31 13 33 56 33 44 0 45 -1 39 -27 -13 -53 -52 -118 -86
-141 -107 -72 -256 -44 -326 60 -69 103 -64 286 11 385 66 86 204 115 305 63z
m470 -20 c0 -49 0 -50 -31 -50 -45 0 -98 -29 -120 -64 -17 -27 -19 -53 -19
-213 l0 -183 -50 0 -50 0 0 270 0 270 45 0 45 0 0 -42 0 -43 27 34 c28 35 92
70 131 71 20 0 22 -5 22 -50z m940 19 c118 -68 156 -262 80 -416 -25 -50 -43
-71 -77 -93 -83 -53 -186 -48 -250 12 l-23 21 0 -136 0 -137 -45 0 -45 0 0
380 0 380 45 0 c44 0 45 0 45 -34 l0 -33 36 33 c19 19 49 38 67 43 44 14 124
4 167 -20z m847 4 c152 -71 193 -330 73 -465 -52 -60 -98 -81 -180 -82 -152
-1 -250 110 -250 283 0 145 71 252 186 280 48 12 128 4 171 -16z m1103 -22 l0
-48 -42 -6 c-51 -7 -87 -33 -110 -78 -15 -28 -18 -62 -18 -206 l0 -173 -45 0
-45 0 0 270 0 270 45 0 45 0 0 -40 0 -41 32 37 c34 39 78 63 116 64 20 0 22
-5 22 -49z m360 38 c52 -11 101 -44 123 -83 8 -13 14 -88 17 -211 l5 -190 28
-3 c25 -3 28 -7 25 -35 -3 -30 -6 -32 -46 -35 -49 -4 -87 15 -97 48 -6 19 -8
19 -48 -10 -113 -81 -262 -58 -309 46 -36 82 -4 169 75 211 25 13 185 42 234
43 23 0 45 47 38 80 -21 94 -223 93 -242 0 -5 -28 -9 -30 -49 -30 -51 0 -55
11 -25 77 22 48 54 71 119 89 60 16 89 17 152 3z m575 0 c76 -21 125 -76 141
-158 6 -31 6 -31 -38 -31 -41 0 -45 2 -57 35 -19 52 -54 75 -117 75 -45 0 -59
-5 -88 -30 -44 -39 -60 -86 -59 -181 1 -129 49 -194 143 -194 40 0 54 5 79 29
17 17 36 45 43 63 11 30 15 33 55 33 35 0 43 -3 43 -18 0 -32 -51 -122 -84
-146 -122 -93 -307 -34 -360 113 -29 80 -20 211 20 288 52 102 167 153 279
122z m1100 -19 c70 -35 125 -144 125 -247 l0 -43 -196 0 -197 0 6 -46 c9 -86
73 -138 160 -131 56 5 96 30 117 75 13 28 20 32 58 32 49 0 52 -10 22 -69 -84
-166 -344 -158 -432 13 -31 59 -37 185 -12 263 25 81 99 156 169 171 64 14
128 7 180 -18z m515 -19 l0 -48 -44 -5 c-24 -3 -55 -14 -69 -24 -50 -37 -57
-67 -57 -258 l0 -176 -45 0 -45 0 0 270 0 270 40 0 40 0 0 -42 0 -43 33 37
c33 39 85 67 125 68 20 0 22 -5 22 -49z m-5261 -163 c35 -106 68 -204 73 -218
9 -22 20 2 82 190 l73 215 51 3 52 3 -46 -128 c-140 -394 -214 -574 -255 -611
-23 -22 -87 -35 -124 -26 -21 5 -25 12 -25 45 l0 39 44 0 c51 0 73 20 95 87
13 38 11 46 -77 289 -50 137 -95 261 -101 277 l-11 27 53 0 53 0 63 -192z
m-1882 150 c11 -14 10 -149 -1 -167 -18 -29 -26 -3 -26 84 0 91 6 109 27 83z"/>
<path d="M799 1593 c-1 -53 -1 -59 0 -238 l1 -145 45 0 45 0 0 215 0 214 -45
-2 -45 -2 -1 -42z"/>
<path d="M950 1071 c-198 -60 -256 -315 -103 -452 141 -127 367 -69 428 110
58 172 -74 354 -254 350 -25 0 -57 -4 -71 -8z m189 -74 c60 -40 94 -97 99
-166 9 -127 -85 -230 -211 -231 -196 -1 -293 237 -150 372 69 65 184 76 262
25z"/>
<path d="M945 996 c-108 -48 -150 -187 -86 -288 63 -99 210 -119 294 -40 105
99 82 258 -45 323 -43 22 -119 24 -163 5z m105 -36 c0 -13 9 -22 25 -26 24 -6
55 -38 55 -56 0 -14 -31 -8 -36 7 -5 11 -21 15 -60 15 -54 0 -54 0 -76 -44
l-21 -44 22 -46 c22 -45 23 -46 72 -46 38 0 51 4 59 20 6 11 20 20 31 20 20 0
20 -1 2 -31 -11 -18 -29 -33 -45 -36 -19 -4 -28 -12 -28 -24 0 -11 -7 -19 -15
-19 -8 0 -15 9 -15 20 0 14 -7 20 -23 20 -27 0 -47 19 -71 67 -22 43 -20 65 9
122 19 38 31 51 55 56 21 5 30 13 30 26 0 10 7 19 15 19 8 0 15 -9 15 -20z"/>
<path d="M1400 1355 l0 -125 45 0 45 0 0 125 0 125 -45 0 -45 0 0 -125z"/>
<path d="M520 1209 l0 -270 43 3 42 3 3 268 2 267 -45 0 -45 0 0 -271z"/>
<path d="M3505 1315 c-41 -43 -59 -114 -53 -207 6 -73 21 -104 69 -140 61 -46
149 -27 191 40 17 28 23 56 26 124 8 155 -35 218 -147 218 -48 0 -57 -3 -86
-35z"/>
<path d="M4414 1349 c-46 -13 -90 -68 -103 -129 -15 -67 -14 -97 3 -155 28
-90 103 -137 184 -115 75 20 116 91 116 200 0 62 -4 83 -24 119 -41 73 -104
102 -176 80z"/>
<path d="M6000 1134 c-36 -7 -82 -15 -104 -19 -81 -13 -115 -97 -60 -152 23
-23 31 -25 84 -21 67 5 123 37 141 81 10 24 15 118 6 122 -1 0 -31 -5 -67 -11z"/>
<path d="M7513 1331 c-40 -25 -62 -59 -70 -105 l-6 -36 152 0 153 0 -7 33
c-19 85 -56 119 -133 124 -44 3 -64 0 -89 -16z"/>
</g>
</svg>